<?xml version="1.0" encoding="utf-8"?>
<svg width="800px" height="800px" viewBox="0 0 16 16" xmlns="http://www.w3.org/2000/svg">
  <path fill="#000000" fill-rule="evenodd" d="M 5.233 0.494 C 6.88 -0.113 8.681 -0.162 10.358 0.355 C 11.402 0.677 12.362 1.208 13.184 1.907 L 13.453 2.146 L 14.293 1.306 C 14.896 0.703 15.907 1.085 15.994 1.899 L 16 2.013 L 16 6 L 12.013 6 C 11.161 6 10.715 5.015 11.229 4.377 L 11.306 4.293 L 12.205 3.393 C 11.557 2.804 10.77 2.388 9.922 2.127 C 8.665 1.739 7.128 1.641 5.897 2.089 C 4.666 2.537 3.668 3.535 2.771 4.703 C 1.874 5.871 1.673 7.352 1.737 8.615 C 1.801 9.878 2.421 11.24 3.385 12.187 C 4.349 13.134 5.408 13.83 6.72 14.115 C 8.032 14.4 9.777 14.433 10.916 13.734 C 12.055 13.035 12.749 12.615 13.316 11.427 C 13.554 10.928 14.27 10.241 14.768 10.479 C 15.266 10.717 15.163 11.481 14.925 11.979 C 14.169 13.563 13.25 14.42 11.687 15.219 C 10.125 16.019 8.301 16.185 6.574 15.872 C 4.847 15.559 3.271 14.687 2.088 13.39 C 0.906 12.093 0.183 10.443 0.03 8.695 C -0.122 6.946 0.305 5.196 1.245 3.714 C 2.185 2.232 3.587 1.101 5.233 0.494 Z M 6 5.461 C 6 5.095 6.375 4.862 6.695 5 L 6.768 5.039 L 10.771 7.578 C 11.053 7.756 11.078 8.146 10.848 8.363 L 10.771 8.422 L 6.768 10.962 C 6.459 11.158 6.062 10.965 6.006 10.621 L 6 10.539 L 6 5.461 Z"/>
</svg>