<?xml version="1.0" encoding="utf-8"?>
<svg width="800px" height="800px" viewBox="0 0 24 24" fill="none" xmlns="http://www.w3.org/2000/svg">
  <path fill-rule="evenodd" clip-rule="evenodd" d="M 18.485 2.293 C 18.876 1.902 19.509 1.902 19.9 2.293 C 25.367 7.76 25.367 16.625 19.9 22.092 C 19.509 22.482 18.876 22.482 18.485 22.092 C 18.095 21.701 18.095 21.068 18.485 20.678 C 23.172 15.991 23.172 8.393 18.485 3.707 C 18.095 3.317 18.095 2.683 18.485 2.293 Z M 17.071 5.121 C 16.681 4.731 16.047 4.731 15.657 5.121 C 15.266 5.512 15.266 6.145 15.657 6.535 C 18.781 9.66 18.781 14.725 15.657 17.849 C 15.266 18.24 15.266 18.873 15.657 19.263 C 16.047 19.654 16.681 19.654 17.071 19.263 C 20.976 15.358 20.976 9.027 17.071 5.121 Z M 14.243 7.95 C 13.852 7.559 13.219 7.559 12.828 7.95 C 12.438 8.34 12.438 8.973 12.828 9.364 C 14.391 10.926 14.391 13.459 12.828 15.021 C 12.438 15.411 12.438 16.045 12.828 16.435 C 13.219 16.826 13.852 16.826 14.243 16.435 C 16.586 14.092 16.586 10.293 14.243 7.95 Z M 11 6.04 C 11 4.783 9.545 4.083 8.563 4.869 L 4.649 8 L 3 8 C 1.343 8 0 9.343 0 11 L 0 13 C 0 14.657 1.343 16 3 16 L 4.649 16 L 8.563 19.131 C 9.545 19.917 11 19.217 11 17.96 L 11 6.04 Z" fill="#000000"/>
</svg>